# xmcd
#
# Track frame offsets:
#  150
#  17132
#  39740
#  56404
#  62185
#  74866
#  93548
#  108353
#  119274
#  122001
#  139502
#  154893
#  174558
#
# Disc length: 2522 seconds
#
# Revision: 0
# Processed by: cddbd v1.5.2PL0 Copyright (c) Steve Scherf et al.
# Submitted via: AltoMP3_Maker 3.0
#
DISCID=bc09d80d
DTITLE=Larry McWhorter - The Open Gate
DYEAR=1900
DGENRE=
TTITLE0=The Open Gate
TTITLE1=Peaches and the Twister
TTITLE2=Sierra Sue
TTITLE3=Calender
TTITLE4=María Elena
TTITLE5=Gate Session
TTITLE6=The Girl I Left Behind Me
TTITLE7=Little Puncher
TTITLE8=Therapy
TTITLE9=Where the Ponies Come to Drink
TTITLE10=Harley's Secret
TTITLE11=My Mother's Eyes
TTITLE12=The Last Wagon
EXTD=
EXTT0=
EXTT1=
EXTT2=
EXTT3=
EXTT4=
EXTT5=
EXTT6=
EXTT7=
EXTT8=
EXTT9=
EXTT10=
EXTT11=
EXTT12=
PLAYORDER=
